<?xml version="1.0" encoding="iso-8859-1"?>
<!-- Generator: Adobe Illustrator 19.1.0, SVG Export Plug-In . SVG Version: 6.00 Build 0)  -->
<svg version="1.1" id="Capa_1" xmlns="http://www.w3.org/2000/svg" xmlns:xlink="http://www.w3.org/1999/xlink" x="0px" y="0px"
	 viewBox="0 0 317.452 317.452" style="enable-background:new 0 0 317.452 317.452;" xml:space="preserve">
<g>
	<g id="Cups_2_">
		<g>
			<path d="M294.777,68.025h-56.688V0H11.338v306.182c0,6.213,5.057,11.27,11.292,11.27h204.076c6.236,0,11.292-5.057,11.292-11.292
				c0-0.068,0.091-0.023,0.113-0.091v-56.643h56.665c6.258,0,11.338-5.079,11.338-11.338V79.363
				C306.114,73.105,301.035,68.025,294.777,68.025z M215.414,294.777H34.013V22.675h181.401V294.777z M283.439,215.414
				c0,6.258-5.079,11.338-11.338,11.338h-34.013V90.701h34.013c6.258,0,11.338,5.079,11.338,11.338V215.414z M192.739,113.376
				c0,0-13.968-3.038-34.013,0c-16.961,2.585-38.57,11.338-56.688,11.338c-25.147,0-45.35-11.338-45.35-11.338v158.726h136.051
				V113.376z"/>
		</g>
	</g>
</g>
<g>
</g>
<g>
</g>
<g>
</g>
<g>
</g>
<g>
</g>
<g>
</g>
<g>
</g>
<g>
</g>
<g>
</g>
<g>
</g>
<g>
</g>
<g>
</g>
<g>
</g>
<g>
</g>
<g>
</g>
</svg>
