<?xml version="1.0" encoding="iso-8859-1"?>
<!-- Generator: Adobe Illustrator 19.1.0, SVG Export Plug-In . SVG Version: 6.00 Build 0)  -->
<svg version="1.1" id="Capa_1" xmlns="http://www.w3.org/2000/svg" xmlns:xlink="http://www.w3.org/1999/xlink" x="0px" y="0px"
	 viewBox="0 0 340.127 340.127" style="enable-background:new 0 0 340.127 340.127;" xml:space="preserve">
<g>
	<g id="Tapes_2_">
		<g>
			<path d="M238.089,158.726c-18.775,0-34.013,15.238-34.013,34.013s15.238,34.013,34.013,34.013s34.013-15.238,34.013-34.013
				S256.864,158.726,238.089,158.726z M238.089,204.076c-6.258,0-11.338-5.079-11.338-11.338s5.079-11.338,11.338-11.338
				c6.258,0,11.338,5.079,11.338,11.338S244.347,204.076,238.089,204.076z M102.038,158.726c-18.775,0-34.013,15.238-34.013,34.013
				s15.238,34.013,34.013,34.013s34.013-15.238,34.013-34.013S120.813,158.726,102.038,158.726z M102.038,204.076
				c-6.258,0-11.338-5.079-11.338-11.338s5.079-11.338,11.338-11.338s11.338,5.079,11.338,11.338S108.296,204.076,102.038,204.076z
				 M0,56.688v226.751h340.127V56.688H0z M263.599,79.363l-17.006,22.675H93.535L76.529,79.363H263.599z M317.452,260.764H22.675
				V79.363h30.226l26.462,39.681v5.669h3.787l7.551,11.338l5.669-11.338h147.388l5.669,11.338l7.551-11.338h3.787v-5.669
				l26.462-39.681h30.226V260.764z"/>
		</g>
	</g>
</g>
<g>
</g>
<g>
</g>
<g>
</g>
<g>
</g>
<g>
</g>
<g>
</g>
<g>
</g>
<g>
</g>
<g>
</g>
<g>
</g>
<g>
</g>
<g>
</g>
<g>
</g>
<g>
</g>
<g>
</g>
</svg>
