<?xml version="1.0" encoding="iso-8859-1"?>
<!-- Generator: Adobe Illustrator 19.1.0, SVG Export Plug-In . SVG Version: 6.00 Build 0)  -->
<svg version="1.1" id="Capa_1" xmlns="http://www.w3.org/2000/svg" xmlns:xlink="http://www.w3.org/1999/xlink" x="0px" y="0px"
	 viewBox="0 0 510.191 510.191" style="enable-background:new 0 0 510.191 510.191;" xml:space="preserve">
<g>
	<g id="PC_2_">
		<g>
			<path d="M453.503,266.433h-45.35v45.35h45.35V266.433z M0,345.796h136.051v45.35h-45.35v22.675h136.051v-22.675h-45.35v-45.35
				h136.051V119.044H0V345.796z M22.675,141.72h272.102v181.401H22.675V141.72z M408.153,164.395
				c6.258,0,11.338-5.079,11.338-11.338c0-6.258-5.079-11.338-11.338-11.338c-6.258,0-11.338,5.079-11.338,11.338
				C396.815,159.316,401.894,164.395,408.153,164.395z M351.465,96.369v317.452h158.726V96.369H351.465z M487.516,391.146H374.14
				V232.42h113.376V391.146z M487.516,187.07H374.14v-68.025h113.376V187.07z M453.503,164.395c6.258,0,11.338-5.079,11.338-11.338
				c0-6.258-5.079-11.338-11.338-11.338c-6.258,0-11.338,5.079-11.338,11.338C442.165,159.316,447.245,164.395,453.503,164.395z
				 M464.84,345.796h-68.025v22.675h68.025V345.796z"/>
		</g>
	</g>
</g>
<g>
</g>
<g>
</g>
<g>
</g>
<g>
</g>
<g>
</g>
<g>
</g>
<g>
</g>
<g>
</g>
<g>
</g>
<g>
</g>
<g>
</g>
<g>
</g>
<g>
</g>
<g>
</g>
<g>
</g>
</svg>
