<?xml version="1.0" encoding="iso-8859-1"?>
<!-- Generator: Adobe Illustrator 19.1.0, SVG Export Plug-In . SVG Version: 6.00 Build 0)  -->
<svg version="1.1" id="Capa_1" xmlns="http://www.w3.org/2000/svg" xmlns:xlink="http://www.w3.org/1999/xlink" x="0px" y="0px"
	 viewBox="0 0 385.477 385.477" style="enable-background:new 0 0 385.477 385.477;" xml:space="preserve">
<g>
	<g id="Coin_2_">
		<g>
			<path d="M192.739,45.35c-81.404,0-147.388,65.985-147.388,147.388s65.985,147.388,147.388,147.388
				s147.388-65.985,147.388-147.388S274.142,45.35,192.739,45.35z M192.739,317.452c-68.887,0-124.713-55.826-124.713-124.713
				S123.852,68.025,192.739,68.025s124.713,55.826,124.713,124.713S261.626,317.452,192.739,317.452z M192.739,0
				C86.302,0,0,86.302,0,192.739s86.302,192.739,192.739,192.739s192.739-86.302,192.739-192.739S299.176,0,192.739,0z
				 M192.739,362.802c-93.92,0-170.064-76.143-170.064-170.064S98.818,22.675,192.739,22.675s170.064,76.143,170.064,170.064
				S286.659,362.802,192.739,362.802z M205.868,122.128h-1.27v-20.09h-23.559v20.09h-1.27c-17.301,0-32.357,12.403-32.357,28.82
				v24.603c0,14.399,13.945,26.008,30.589,26.008h3.038v40.067c-5.374-0.862-9.569-5.011-9.569-9.841v-10.022h-24.058v12.811
				c0,16.417,15.079,28.82,32.357,28.82h1.27v20.09h23.559v-20.09h1.27c17.301,0,32.357-12.607,32.357-28.82V207.16
				c0-13.809-12.811-25.827-29.002-25.827h-4.626v-37.437c5.442,0.884,9.592,4.852,9.592,9.614v10.431h24.058v-13.016
				C238.225,135.121,223.146,122.128,205.868,122.128z M181.038,181.061c-5.374-0.703-9.569-4.059-9.569-8.526v-19.002
				c0-4.807,4.354-8.798,9.569-9.637C181.038,143.896,181.038,181.061,181.038,181.061z M214.167,211.559v20.204
				c0,4.966-4.15,8.934-9.592,9.818v-39.455C210.131,203.351,214.167,207.115,214.167,211.559z"/>
		</g>
	</g>
</g>
<g>
</g>
<g>
</g>
<g>
</g>
<g>
</g>
<g>
</g>
<g>
</g>
<g>
</g>
<g>
</g>
<g>
</g>
<g>
</g>
<g>
</g>
<g>
</g>
<g>
</g>
<g>
</g>
<g>
</g>
</svg>
