<?xml version="1.0" encoding="iso-8859-1"?>
<!-- Generator: Adobe Illustrator 19.1.0, SVG Export Plug-In . SVG Version: 6.00 Build 0)  -->
<svg version="1.1" id="Capa_1" xmlns="http://www.w3.org/2000/svg" xmlns:xlink="http://www.w3.org/1999/xlink" x="0px" y="0px"
	 viewBox="0 0 317.452 317.452" style="enable-background:new 0 0 317.452 317.452;" xml:space="preserve">
<g>
	<g id="Earth_2_">
		<g>
			<path d="M226.751,124.713c7.891-17.369-22.131-22.108-22.675-22.675c0,0-42.289,37.936-45.35,56.688
				c-1.474,9.002,16.576,25.532,22.675,45.35c6.598,21.473,3.583,48.956,0,56.688c0,0,39.75-17.437,68.025-68.025
				C249.427,192.739,221.309,136.686,226.751,124.713z M158.726,0C71.064,0,0,71.064,0,158.726s71.064,158.726,158.726,158.726
				s158.726-71.064,158.726-158.726S246.388,0,158.726,0z M158.726,294.777c-75.145,0-136.051-60.905-136.051-136.051
				S83.581,22.675,158.726,22.675s136.051,60.905,136.051,136.051S233.871,294.777,158.726,294.777z M124.713,56.688
				c-48.411,28.004-68.025,79.363-68.025,79.363c10.204-24.217,102.038-11.338,102.038-11.338
				C169.791,99.703,124.713,56.688,124.713,56.688z"/>
		</g>
	</g>
</g>
<g>
</g>
<g>
</g>
<g>
</g>
<g>
</g>
<g>
</g>
<g>
</g>
<g>
</g>
<g>
</g>
<g>
</g>
<g>
</g>
<g>
</g>
<g>
</g>
<g>
</g>
<g>
</g>
<g>
</g>
</svg>
