<?xml version="1.0" encoding="iso-8859-1"?>
<!-- Generator: Adobe Illustrator 19.1.0, SVG Export Plug-In . SVG Version: 6.00 Build 0)  -->
<svg version="1.1" id="Capa_1" xmlns="http://www.w3.org/2000/svg" xmlns:xlink="http://www.w3.org/1999/xlink" x="0px" y="0px"
	 viewBox="0 0 408.153 408.153" style="enable-background:new 0 0 408.153 408.153;" xml:space="preserve">
<g>
	<g id="Bottles_2_">
		<g>
			<path d="M283.439,124.713V90.678c0-6.258-5.057-11.315-11.315-11.315h-11.36c-3.741-23.129-22.267-40.022-45.35-44.262V11.338
				C215.414,5.079,210.335,0,204.076,0c-6.258,0-11.338,5.079-11.338,11.338v23.764c-23.083,4.24-41.609,21.133-45.35,44.262
				h-11.315c-6.281,0-11.36,5.079-11.36,11.36v33.99c-24.534,5.737-34.013,31.224-34.013,56.688v170.064
				c0,29.818,14.512,56.688,45.35,56.688h136.051c30.838,0,45.35-26.87,45.35-56.688V181.401
				C317.452,154.259,310.423,128.568,283.439,124.713z M204.076,56.688c15.623,0,30.045,8.367,34.013,22.675h-68.025
				C174.032,65.055,188.453,56.688,204.076,56.688z M147.388,102.038h113.376v22.675H147.388V102.038z M294.777,351.465
				c0,17.392-4.308,34.013-22.675,34.013H136.051c-18.344,0-22.675-16.621-22.675-34.013l0,0h45.35V328.79h-45.35v-22.675h45.35
				v-22.675h-45.35v-22.675h45.35v-22.675h-45.35v-22.675h45.35v-22.675h-45.35v-11.338c0-17.392,4.331-34.013,22.675-34.013
				h136.051c18.367,0,22.675,16.621,22.675,34.013V351.465z"/>
		</g>
	</g>
</g>
<g>
</g>
<g>
</g>
<g>
</g>
<g>
</g>
<g>
</g>
<g>
</g>
<g>
</g>
<g>
</g>
<g>
</g>
<g>
</g>
<g>
</g>
<g>
</g>
<g>
</g>
<g>
</g>
<g>
</g>
</svg>
