<?xml version="1.0" encoding="iso-8859-1"?>
<!-- Generator: Adobe Illustrator 19.1.0, SVG Export Plug-In . SVG Version: 6.00 Build 0)  -->
<svg version="1.1" id="Capa_1" xmlns="http://www.w3.org/2000/svg" xmlns:xlink="http://www.w3.org/1999/xlink" x="0px" y="0px"
	 viewBox="0 0 272.102 272.102" style="enable-background:new 0 0 272.102 272.102;" xml:space="preserve">
<g>
	<g id="Floppy_Disk_2_">
		<g>
			<path d="M136.051,204.076H45.35v22.675h90.701V204.076z M181.401,204.076h-22.675v22.675h22.675V204.076z M226.434,0H11.338
				C5.079,0,0,5.079,0,11.338v249.427c0,6.258,5.079,11.338,11.338,11.338h249.427c6.258,0,11.338-5.079,11.338-11.338V45.214
				L226.434,0z M136.051,22.675h11.338c6.258,0,11.338,5.079,11.338,11.338v22.675c0,6.258-5.079,11.338-11.338,11.338h-11.338
				V22.675z M68.025,34.013c0-6.258,5.079-11.338,11.338-11.338h34.013v45.35H79.363c-6.258,0-11.338-5.079-11.338-11.338V34.013z
				 M249.427,249.427H22.675v-68.025h226.751V249.427z M249.427,158.726H22.675V22.675H45.35v56.688
				c0,6.258,5.079,11.338,11.338,11.338h113.376c6.258,0,11.338-5.079,11.338-11.338V22.675h35.691l32.335,31.995V158.726z
				 M226.751,204.076h-22.675v22.675h22.675V204.076z"/>
		</g>
	</g>
</g>
<g>
</g>
<g>
</g>
<g>
</g>
<g>
</g>
<g>
</g>
<g>
</g>
<g>
</g>
<g>
</g>
<g>
</g>
<g>
</g>
<g>
</g>
<g>
</g>
<g>
</g>
<g>
</g>
<g>
</g>
</svg>
