<?xml version="1.0" encoding="iso-8859-1"?>
<!-- Generator: Adobe Illustrator 19.1.0, SVG Export Plug-In . SVG Version: 6.00 Build 0)  -->
<svg version="1.1" id="Capa_1" xmlns="http://www.w3.org/2000/svg" xmlns:xlink="http://www.w3.org/1999/xlink" x="0px" y="0px"
	 viewBox="0 0 335.348 335.348" style="enable-background:new 0 0 335.348 335.348;" xml:space="preserve">
<g>
	<g id="Gift_2_">
		<g>
			<path d="M235.699,63.337c21.156-17.256,37.595-38.208,27.981-52.561C253.182-4.87,223.409-3.17,197.65,13.95
				c-11.542,7.664-20.975,17.256-26.575,27.029c-1.497,2.608-2.562,5.17-3.469,7.71c-4.263-11.95-14.557-24.58-29.818-34.738
				c-25.804-17.142-55.554-18.82-66.03-3.175c-5.873,8.775-5.261,20.317,1.723,32.493c4.218,7.369,17.006,15.691,26.167,20.068
				H20.285v68.025H42.96v203.986h249.427V131.362h22.675V63.337C315.062,63.337,235.699,63.337,235.699,63.337z M122.323,312.786
				H65.636V131.362h56.688V312.786z M122.323,108.687H42.96V86.012h79.363V108.687z M112.619,51.523
				c-8.503-5.669-15.601-12.743-19.433-19.433c-3.197-5.601-2.789-8.435-2.562-8.753c0.159-0.249,1.678-1.247,5.623-1.247
				c8.095,0,18.934,3.991,28.956,10.635c18.253,12.154,23.559,25.872,21.995,28.208c-0.159,0.249-1.678,1.224-5.623,1.224
				C133.48,62.157,122.641,58.189,112.619,51.523z M190.349,312.786h-45.35V86.012h45.35V312.786z M188.217,60.933
				c-0.227-0.34-0.635-3.175,2.562-8.775c3.832-6.689,10.929-13.786,19.433-19.455c10.022-6.666,20.861-10.635,28.956-10.635
				c3.945,0,5.465,0.998,5.623,1.224c1.565,2.336-3.741,16.054-21.995,28.208c-10.022,6.666-20.884,10.657-28.979,10.657
				C189.895,62.157,188.376,61.182,188.217,60.933z M269.712,312.786h-56.688V131.362h56.688V312.786z M292.387,108.687h-79.363
				V86.012h79.363V108.687z"/>
		</g>
	</g>
</g>
<g>
</g>
<g>
</g>
<g>
</g>
<g>
</g>
<g>
</g>
<g>
</g>
<g>
</g>
<g>
</g>
<g>
</g>
<g>
</g>
<g>
</g>
<g>
</g>
<g>
</g>
<g>
</g>
<g>
</g>
</svg>
