<?xml version="1.0" encoding="iso-8859-1"?>
<!-- Generator: Adobe Illustrator 19.1.0, SVG Export Plug-In . SVG Version: 6.00 Build 0)  -->
<svg version="1.1" id="Capa_1" xmlns="http://www.w3.org/2000/svg" xmlns:xlink="http://www.w3.org/1999/xlink" x="0px" y="0px"
	 viewBox="0 0 294.777 294.777" style="enable-background:new 0 0 294.777 294.777;" xml:space="preserve">
<g>
	<g id="Headphone_2_">
		<g>
			<path d="M147.388,5.635C65.985,5.635,0,71.461,0,152.683v67.685c0,6.236,5.079,11.315,11.338,11.315
				c0.091,0,0.136,0.159,0.227,0.181H45.35v33.945c0,0.091,0.091,0.159,0.091,0.227c0,0.159-0.091,0.295-0.091,0.476
				c0,12.494,10.158,22.63,22.675,22.63s22.675-10.136,22.675-22.63c0-0.181-0.091-0.317-0.091-0.499
				c0-0.091,0.091-0.136,0.091-0.227V175.29c0-12.494-10.158-22.63-22.675-22.63S45.35,162.796,45.35,175.29v33.945H22.675v-45.237
				c-0.34-3.719,0-7.483,0-11.315c0-68.728,55.826-124.419,124.713-124.419c68.864,0,124.713,55.713,124.713,124.419
				c0,3.809,0.34,7.574,0,11.315v45.237h-22.675V175.29c0-12.494-10.158-22.63-22.675-22.63s-22.675,10.136-22.675,22.63v90.496
				c0,0.068,0.091,0.136,0.091,0.227c0,0.181-0.091,0.317-0.091,0.499c0,12.494,10.158,22.63,22.675,22.63
				s22.675-10.136,22.675-22.63c0-0.181-0.091-0.317-0.091-0.476c0-0.091,0.091-0.136,0.091-0.227v-33.945h33.945
				c0.045-0.023,0-0.181,0.068-0.181c6.258,0,11.338-5.057,11.338-11.315v-67.685C294.777,71.461,228.792,5.635,147.388,5.635z"/>
		</g>
	</g>
</g>
<g>
</g>
<g>
</g>
<g>
</g>
<g>
</g>
<g>
</g>
<g>
</g>
<g>
</g>
<g>
</g>
<g>
</g>
<g>
</g>
<g>
</g>
<g>
</g>
<g>
</g>
<g>
</g>
<g>
</g>
</svg>
