<?xml version="1.0" encoding="iso-8859-1"?>
<!-- Generator: Adobe Illustrator 19.1.0, SVG Export Plug-In . SVG Version: 6.00 Build 0)  -->
<svg version="1.1" id="Capa_1" xmlns="http://www.w3.org/2000/svg" xmlns:xlink="http://www.w3.org/1999/xlink" x="0px" y="0px"
	 viewBox="0 0 328.79 328.79" style="enable-background:new 0 0 328.79 328.79;" xml:space="preserve">
<g>
	<g id="Home_2_">
		<g>
			<path d="M277.771,76.12V0h-45.35v50.203l-68.025-38.865L5.669,113.376l22.675,11.338l136.051-90.701l136.051,79.363
				l22.675-11.338L277.771,76.12z M51.019,136.051V328.79h90.701v-90.701c0-12.517,10.158-22.675,22.675-22.675
				s22.675,10.158,22.675,22.675v90.701h90.701V136.051L164.395,68.025L51.019,136.051z M255.095,306.114h-45.35v-68.025
				c0-25.056-20.294-45.35-45.35-45.35s-45.35,20.294-45.35,45.35v68.025h-45.35V148.885l90.701-54.42l90.701,54.42V306.114z"/>
		</g>
	</g>
</g>
<g>
</g>
<g>
</g>
<g>
</g>
<g>
</g>
<g>
</g>
<g>
</g>
<g>
</g>
<g>
</g>
<g>
</g>
<g>
</g>
<g>
</g>
<g>
</g>
<g>
</g>
<g>
</g>
<g>
</g>
</svg>
