<?xml version="1.0" encoding="iso-8859-1"?>
<!-- Generator: Adobe Illustrator 19.1.0, SVG Export Plug-In . SVG Version: 6.00 Build 0)  -->
<svg version="1.1" id="Capa_1" xmlns="http://www.w3.org/2000/svg" xmlns:xlink="http://www.w3.org/1999/xlink" x="0px" y="0px"
	 viewBox="0 0 294.868 294.868" style="enable-background:new 0 0 294.868 294.868;" xml:space="preserve">
<g>
	<g id="Image_2_">
		<g>
			<path d="M0,5.816v283.235h294.868V5.816H0z M42.811,209.779l39.659-46.076l30.158,46.076H42.811z M154.962,209.779l50.43-109.181
				l56.03,109.181H154.962z M272.17,185.653L214.235,71.529c-1.701-3.583-4.49-6.077-9.569-5.805
				c-4.104,0.068-7.778,2.494-9.319,6.145l-61.427,133.307l-42.493-64.919c-1.859-2.857-5.079-4.58-8.571-4.626
				c-3.379-0.091-6.757,1.61-8.685,4.399l-51.427,61.631V28.378H272.17V185.653z M79.431,107.741
				c12.517,0,22.675-10.158,22.675-22.675S91.948,62.391,79.431,62.391S56.756,72.549,56.756,85.066S66.914,107.741,79.431,107.741z
				"/>
		</g>
	</g>
</g>
<g>
</g>
<g>
</g>
<g>
</g>
<g>
</g>
<g>
</g>
<g>
</g>
<g>
</g>
<g>
</g>
<g>
</g>
<g>
</g>
<g>
</g>
<g>
</g>
<g>
</g>
<g>
</g>
<g>
</g>
</svg>
