<?xml version="1.0" encoding="iso-8859-1"?>
<!-- Generator: Adobe Illustrator 19.1.0, SVG Export Plug-In . SVG Version: 6.00 Build 0)  -->
<svg version="1.1" id="Capa_1" xmlns="http://www.w3.org/2000/svg" xmlns:xlink="http://www.w3.org/1999/xlink" x="0px" y="0px"
	 viewBox="0 0 317.452 317.452" style="enable-background:new 0 0 317.452 317.452;" xml:space="preserve">
<g>
	<g id="Ink_2_">
		<g>
			<path d="M294.777,113.376h-79.363v-45.35h22.675V11.338c0,0-39.568-11.338-79.363-11.338c-39.568,0-79.363,11.338-79.363,11.338
				v56.688h22.675v45.35H22.675C10.158,113.376,0,123.534,0,136.051v158.726c0,12.517,10.158,22.675,22.675,22.675h272.102
				c12.517,0,22.675-10.158,22.675-22.675V136.051C317.452,123.534,307.294,113.376,294.777,113.376z M192.739,68.025v45.35h-68.025
				v-45.35H192.739z M294.777,272.102c0,12.517-10.158,22.675-22.675,22.675H45.35c-12.517,0-22.675-10.158-22.675-22.675V158.726
				c0-12.517,10.158-22.675,22.675-22.675h226.751c12.517,0,22.675,10.158,22.675,22.675V272.102z"/>
		</g>
	</g>
</g>
<g>
</g>
<g>
</g>
<g>
</g>
<g>
</g>
<g>
</g>
<g>
</g>
<g>
</g>
<g>
</g>
<g>
</g>
<g>
</g>
<g>
</g>
<g>
</g>
<g>
</g>
<g>
</g>
<g>
</g>
</svg>
