<?xml version="1.0" encoding="iso-8859-1"?>
<!-- Generator: Adobe Illustrator 19.1.0, SVG Export Plug-In . SVG Version: 6.00 Build 0)  -->
<svg version="1.1" id="Capa_1" xmlns="http://www.w3.org/2000/svg" xmlns:xlink="http://www.w3.org/1999/xlink" x="0px" y="0px"
	 viewBox="0 0 362.802 362.802" style="enable-background:new 0 0 362.802 362.802;" xml:space="preserve">
<g>
	<g id="Jar_2_">
		<g>
			<path d="M192.739,238.089h-79.363v22.675h79.363V238.089z M113.376,204.076h136.051v-90.701H113.376V204.076z M136.051,136.051
				h90.701v45.35h-90.701V136.051z M260.764,56.688V22.675c0,0-39.863-22.698-79.363-22.675
				c-39.863,0.023-79.363,22.675-79.363,22.675v34.013c-24.535,5.737-34.013,31.224-34.013,56.688v192.739
				c0,29.818,14.512,56.688,45.35,56.688h136.051c30.838,0,45.35-26.87,45.35-56.688V113.376
				C294.777,86.234,287.748,60.543,260.764,56.688z M124.713,34.013c0,0,27.822-11.338,56.688-11.338
				c27.8,0,56.688,11.338,56.688,11.338v22.675H124.713V34.013z M272.102,306.114c0,17.392-4.308,34.013-22.675,34.013H113.376
				c-18.344,0-22.675-16.621-22.675-34.013V113.376c0-17.392,4.331-34.013,22.675-34.013h136.051
				c18.367,0,22.675,16.621,22.675,34.013V306.114z M113.376,306.114h113.376v-22.675H113.376V306.114z"/>
		</g>
	</g>
</g>
<g>
</g>
<g>
</g>
<g>
</g>
<g>
</g>
<g>
</g>
<g>
</g>
<g>
</g>
<g>
</g>
<g>
</g>
<g>
</g>
<g>
</g>
<g>
</g>
<g>
</g>
<g>
</g>
<g>
</g>
</svg>
