<?xml version="1.0" encoding="iso-8859-1"?>
<!-- Generator: Adobe Illustrator 19.1.0, SVG Export Plug-In . SVG Version: 6.00 Build 0)  -->
<svg version="1.1" id="Capa_1" xmlns="http://www.w3.org/2000/svg" xmlns:xlink="http://www.w3.org/1999/xlink" x="0px" y="0px"
	 viewBox="0 0 298.327 298.327" style="enable-background:new 0 0 298.327 298.327;" xml:space="preserve">
<g>
	<g id="Key_2_">
		<g>
			<path d="M9.715,192.399c-17.709,17.709-10.521,53.604,16.031,80.179s62.447,33.741,80.179,16.031
				c17.709-17.709,10.521-53.604-16.031-80.157C63.319,181.877,27.425,174.689,9.715,192.399z M89.895,272.578
				c-8.866,8.866-30.385,1.678-48.094-16.031s-24.897-39.251-16.031-48.094c8.843-8.866,30.385-1.701,48.094,16.031
				C91.573,242.193,98.761,263.712,89.895,272.578z M250.23,96.211l32.063-32.063l-16.031-16.031l32.063-32.063L282.293,0
				L81.868,200.426l16.031,16.031l72.175-72.152l16.031,16.031l16.031-16.031l-16.031-16.031l16.031-16.031l40.09,40.09
				l16.031-16.031l-40.09-40.09l16.031-16.031L250.23,96.211z"/>
		</g>
	</g>
</g>
<g>
</g>
<g>
</g>
<g>
</g>
<g>
</g>
<g>
</g>
<g>
</g>
<g>
</g>
<g>
</g>
<g>
</g>
<g>
</g>
<g>
</g>
<g>
</g>
<g>
</g>
<g>
</g>
<g>
</g>
</svg>
