<?xml version="1.0" encoding="iso-8859-1"?>
<!-- Generator: Adobe Illustrator 19.1.0, SVG Export Plug-In . SVG Version: 6.00 Build 0)  -->
<svg version="1.1" id="Capa_1" xmlns="http://www.w3.org/2000/svg" xmlns:xlink="http://www.w3.org/1999/xlink" x="0px" y="0px"
	 viewBox="0 0 340.127 340.127" style="enable-background:new 0 0 340.127 340.127;" xml:space="preserve">
<g>
	<g id="Lock_2_">
		<g>
			<path d="M260.764,136.051v-34.013C260.764,45.69,220.153,0,170.064,0S79.363,45.69,79.363,102.038v34.013h-45.35v158.726
				c0,25.056,20.294,45.35,45.35,45.35h181.401c25.056,0,45.35-20.294,45.35-45.35V136.051H260.764z M102.038,102.038
				c0-44.489,28.48-79.363,68.025-79.363s68.025,34.874,68.025,79.363v34.013H102.038V102.038z M283.439,272.102
				c0,25.056-20.317,45.35-45.35,45.35H102.038c-25.056,0-45.35-20.294-45.35-45.35V158.726h226.751V272.102z M170.064,283.439
				c12.517,0,22.675-10.158,22.675-22.675v-45.35c0-12.517-10.158-22.675-22.675-22.675s-22.675,10.158-22.675,22.675v45.35
				C147.388,273.281,157.547,283.439,170.064,283.439z"/>
		</g>
	</g>
</g>
<g>
</g>
<g>
</g>
<g>
</g>
<g>
</g>
<g>
</g>
<g>
</g>
<g>
</g>
<g>
</g>
<g>
</g>
<g>
</g>
<g>
</g>
<g>
</g>
<g>
</g>
<g>
</g>
<g>
</g>
</svg>
