<?xml version="1.0" encoding="iso-8859-1"?>
<!-- Generator: Adobe Illustrator 19.1.0, SVG Export Plug-In . SVG Version: 6.00 Build 0)  -->
<svg version="1.1" id="Capa_1" xmlns="http://www.w3.org/2000/svg" xmlns:xlink="http://www.w3.org/1999/xlink" x="0px" y="0px"
	 viewBox="0 0 319.286 319.286" style="enable-background:new 0 0 319.286 319.286;" xml:space="preserve">
<g>
	<g id="Nibs_2_">
		<g>
			<path d="M86.798,248.52l-16.031-16.031l-32.063-32.063c-4.422-4.422-11.61-4.422-16.031,0c-4.422,4.422-4.422,11.61,0,16.031
				l16.031,16.031c-0.023,0.023-0.023,0.023-0.023,0.023l-32.04,32.04c-8.843,8.843-8.866,23.219,0,32.063l16.031,16.031
				c8.866,8.866,23.219,8.843,32.063,0l32.04-32.04l0.045-0.023l16.031,16.031c4.422,4.422,11.61,4.422,16.031,0
				c4.422-4.422,4.422-11.61,0-16.031L86.798,248.52z M78.793,96.211l-16.031,96.188l64.125,64.125l96.211-16.031L319.286,0
				L78.793,96.211z M206.772,220.244l-72.107,12.018l-47.618-47.64l12.018-72.107l152.808-61.132L210.06,93.195l0,0l-20.521,20.498
				c-12.63-5.986-28.14-3.9-38.593,6.553c-13.288,13.288-13.288,34.806,0,48.094c13.288,13.288,34.829,13.288,48.094,0
				c10.453-10.453,12.562-25.986,6.53-38.616l1.474-1.474l0,0l60.837-60.837L206.772,220.244z M183.008,152.332
				c-4.422,4.422-11.61,4.422-16.031,0c-4.422-4.422-4.422-11.61,0-16.031c4.422-4.422,11.61-4.422,16.031,0
				S187.43,147.887,183.008,152.332z"/>
		</g>
	</g>
</g>
<g>
</g>
<g>
</g>
<g>
</g>
<g>
</g>
<g>
</g>
<g>
</g>
<g>
</g>
<g>
</g>
<g>
</g>
<g>
</g>
<g>
</g>
<g>
</g>
<g>
</g>
<g>
</g>
<g>
</g>
</svg>
