<?xml version="1.0" encoding="iso-8859-1"?>
<!-- Generator: Adobe Illustrator 19.1.0, SVG Export Plug-In . SVG Version: 6.00 Build 0)  -->
<svg version="1.1" id="Capa_1" xmlns="http://www.w3.org/2000/svg" xmlns:xlink="http://www.w3.org/1999/xlink" x="0px" y="0px"
	 viewBox="0 0 340.127 340.127" style="enable-background:new 0 0 340.127 340.127;" xml:space="preserve">
<g>
	<g id="Note_2_">
		<g>
			<path d="M45.35,0v45.35H22.675v22.675H45.35v22.675H22.675v22.675H45.35v22.675H22.675v22.675H45.35v22.675H22.675v22.675H45.35
				v22.675H22.675v22.675H45.35v22.675H22.675v22.675H45.35v45.35h272.102V0H45.35z M294.777,317.452H68.025v-22.675h22.675v-22.675
				H68.025v-22.675h22.675v-22.675H68.025v-22.675h22.675v-22.675H68.025v-22.675h22.675v-22.675H68.025v-22.675h22.675V90.701
				H68.025V68.025h22.675V45.35H68.025V22.675h226.751V317.452z M260.764,45.35H124.713v90.701h136.051V45.35z M238.089,113.376
				h-90.701v-45.35h90.701V113.376z"/>
		</g>
	</g>
</g>
<g>
</g>
<g>
</g>
<g>
</g>
<g>
</g>
<g>
</g>
<g>
</g>
<g>
</g>
<g>
</g>
<g>
</g>
<g>
</g>
<g>
</g>
<g>
</g>
<g>
</g>
<g>
</g>
<g>
</g>
</svg>
