<?xml version="1.0" encoding="iso-8859-1"?>
<!-- Generator: Adobe Illustrator 19.1.0, SVG Export Plug-In . SVG Version: 6.00 Build 0)  -->
<svg version="1.1" id="Capa_1" xmlns="http://www.w3.org/2000/svg" xmlns:xlink="http://www.w3.org/1999/xlink" x="0px" y="0px"
	 viewBox="0 0 358.201 358.201" style="enable-background:new 0 0 358.201 358.201;" xml:space="preserve">
<g>
	<g id="Phones_2_">
		<g>
			<path d="M355.161,270.873l-22.675-39.273c-6.258-10.839-20.136-14.557-30.974-8.299l-17.641,10.181
				c-11.7-17.573-24.104-37.165-36.008-57.754c-11.428-19.795-22.267-40.657-31.859-60.157l17.483-10.09
				c10.839-6.258,14.557-20.136,8.299-30.974L219.11,35.233c-6.258-10.861-20.136-14.58-30.974-8.322L136.89,56.502
				c-10.839,6.258-14.557,20.136-8.299,30.974c0.136,0.249,0,0.522,0.045,0.771c12.131,27.686,34.852,77.368,60.316,121.493
				c27.369,47.414,57.391,89.544,74.692,112.786c6.258,10.839,21.133,15.17,31.995,8.911l51.246-29.591
				C357.7,295.589,361.419,281.712,355.161,270.873z M284.664,311.643c-0.385,0.045-1.179-0.249-1.383-0.476
				c-0.431-0.771-0.93-1.497-1.451-2.199c-15.646-21.02-45.985-63.354-73.241-110.587c-24.444-42.335-46.552-90.497-58.139-116.89
				c-0.522-1.882-1.27-3.696-2.222-5.351l51.246-29.591l22.675,39.273l-17.483,10.113c-10.34,5.964-14.285,18.934-9.025,29.636
				c11.179,22.72,22.154,43.4,32.584,61.495c10.839,18.775,23.219,38.638,36.756,59.001c6.621,9.954,19.863,13.061,30.226,7.075
				l17.641-10.181l22.675,39.273L284.664,311.643z M0,256.225l34.013,68.025h34.013l-34.013-68.025H0z M68.025,256.225
				l34.013,68.025h34.013l-34.013-68.025H68.025z M136.051,256.225l34.013,68.025h34.013l-34.013-68.025H136.051z"/>
		</g>
	</g>
</g>
<g>
</g>
<g>
</g>
<g>
</g>
<g>
</g>
<g>
</g>
<g>
</g>
<g>
</g>
<g>
</g>
<g>
</g>
<g>
</g>
<g>
</g>
<g>
</g>
<g>
</g>
<g>
</g>
<g>
</g>
</svg>
