<?xml version="1.0" encoding="iso-8859-1"?>
<!-- Generator: Adobe Illustrator 19.1.0, SVG Export Plug-In . SVG Version: 6.00 Build 0)  -->
<svg version="1.1" id="Capa_1" xmlns="http://www.w3.org/2000/svg" xmlns:xlink="http://www.w3.org/1999/xlink" x="0px" y="0px"
	 viewBox="0 0 430.828 430.828" style="enable-background:new 0 0 430.828 430.828;" xml:space="preserve">
<g>
	<g id="Viba_2_">
		<g>
			<path d="M147.388,226.751h22.675v-22.675h-22.675V226.751z M192.739,272.102h22.675v-22.675h-22.675V272.102z M147.388,181.401
				h22.675v-22.675h-22.675V181.401z M102.038,272.102h22.675v-22.675h-22.675V272.102z M147.388,272.102h22.675v-22.675h-22.675
				V272.102z M102.038,226.751h22.675v-22.675h-22.675V226.751z M192.739,226.751h22.675v-22.675h-22.675V226.751z M102.038,181.401
				h22.675v-22.675h-22.675V181.401z M192.739,181.401h22.675v-22.675h-22.675V181.401z M328.79,181.401h45.35v-22.675h-45.35
				V181.401z M396.815,68.025H34.013C18.888,68.025,0,79.363,0,215.414s18.888,147.388,34.013,147.388h362.802
				c15.124,0,34.013-11.451,34.013-147.071C430.828,79.25,411.939,68.025,396.815,68.025z M396.815,317.452
				c0,12.517-10.158,22.675-22.675,22.675H56.688c-12.517,0-22.675-10.158-22.675-22.675c0,0-11.338-45.645-11.338-102.038
				c0-56.983,11.338-102.038,11.338-102.038c0-12.517,10.158-22.675,22.675-22.675H374.14c12.517,0,22.675,10.158,22.675,22.675
				c0,0,11.338,45.917,11.338,102.9C408.153,272.669,396.815,317.452,396.815,317.452z M56.688,317.452h249.427V113.376H56.688
				V317.452z M79.363,136.051h204.076v158.726H79.363V136.051z M238.089,272.102h22.675v-22.675h-22.675V272.102z M238.089,181.401
				h22.675v-22.675h-22.675V181.401z M238.089,226.751h22.675v-22.675h-22.675V226.751z M362.802,215.414h-22.675v11.338H328.79
				v22.675h11.338v11.338h22.675v-11.338h11.338v-22.675h-11.338V215.414z"/>
		</g>
	</g>
</g>
<g>
</g>
<g>
</g>
<g>
</g>
<g>
</g>
<g>
</g>
<g>
</g>
<g>
</g>
<g>
</g>
<g>
</g>
<g>
</g>
<g>
</g>
<g>
</g>
<g>
</g>
<g>
</g>
<g>
</g>
</svg>
