<?xml version="1.0" encoding="iso-8859-1"?>
<!-- Generator: Adobe Illustrator 19.1.0, SVG Export Plug-In . SVG Version: 6.00 Build 0)  -->
<svg version="1.1" id="Capa_1" xmlns="http://www.w3.org/2000/svg" xmlns:xlink="http://www.w3.org/1999/xlink" x="0px" y="0px"
	 viewBox="0 0 337.043 337.043" style="enable-background:new 0 0 337.043 337.043;" xml:space="preserve">
<g>
	<g id="Pins_2_">
		<g>
			<path d="M336.703,0l-23.718,8.344l-96.211,96.211l-56.098-56.121l-16.054,16.031v32.063l-96.188,96.211H16.371L0.34,208.77
				l128.273,128.273l16.031-16.031v-32.063l96.188-96.211h32.063l16.031-16.031l-56.121-56.121l96.211-96.211L336.703,0z
				 M250.22,170.064h-9.387c-6.009,0-11.791,2.381-16.031,6.644l-96.211,96.211c-4.263,4.263-6.644,10.022-6.644,16.031v9.387
				l-82.9-82.923h9.388c6.009,0,11.791-2.381,16.031-6.644l96.211-96.211c4.263-4.263,6.644-10.022,6.644-16.031v-9.388
				L250.22,170.064z"/>
		</g>
	</g>
</g>
<g>
</g>
<g>
</g>
<g>
</g>
<g>
</g>
<g>
</g>
<g>
</g>
<g>
</g>
<g>
</g>
<g>
</g>
<g>
</g>
<g>
</g>
<g>
</g>
<g>
</g>
<g>
</g>
<g>
</g>
</svg>
