<?xml version="1.0" encoding="iso-8859-1"?>
<!-- Generator: Adobe Illustrator 19.1.0, SVG Export Plug-In . SVG Version: 6.00 Build 0)  -->
<svg version="1.1" id="Capa_1" xmlns="http://www.w3.org/2000/svg" xmlns:xlink="http://www.w3.org/1999/xlink" x="0px" y="0px"
	 viewBox="0 0 461.661 461.661" style="enable-background:new 0 0 461.661 461.661;" xml:space="preserve">
<g>
	<g id="Scotter_2_">
		<g>
			<path d="M453.566,295.25c3.764-6.576,9.569-19.886,5.828-34.829c-5.17-20.702-18.684-39.455-36.326-53.105h5.623
				c6.258,0,11.338-4.989,11.338-11.156v-48.411c0-6.168-5.079-11.156-11.338-11.156H260.284c-6.258,0-11.338,4.989-11.338,11.156
				v48.434c0,6.168,5.079,11.156,11.338,11.156h6.213c10.022,10.521,27.573,33.355,23.741,50.928
				c-2.131,9.705-11.202,17.596-27.006,23.469h-86.868c-2.381-9.07-8.617-18.526-16.848-27.188
				c3.288-5.601,7.256-14.784,13.424-29.138c13.718-31.927,19.501-61.949,21.451-74.034c9.796-5.578,20.906-14.489,23.083-27.369
				c2.177-12.857-4.694-25.351-20.453-37.142c-1.633-1.224-3.56-1.995-5.601-2.199l-61.155-6.825
				c-3.265-0.431-6.621,0.726-9.047,2.948c-2.154,1.995-20.952,20.067-19.478,42.879c0.567,8.843,4.603,21.768,20.566,33.174
				c1.927,1.383,4.286,2.131,6.666,2.131h6.78c-3.583,16.984-11.632,47.164-26.349,66.733c-29.41-2.744-74.125,5.079-108.024,66.37
				c-1.678,3.016-1.837,6.621-0.408,9.796c1.406,3.152,4.195,5.487,7.596,6.326l27.369,6.848c-0.499,3.061-0.952,6.145-0.952,9.342
				c0,32.834,27.165,59.522,60.565,59.522c29.5,0,54.08-20.884,59.409-48.366h186.73c5.329,27.505,29.909,48.366,59.409,48.366
				c33.4,0,60.565-26.689,60.565-59.522C461.639,313.753,458.555,303.912,453.566,295.25z M417.377,185.026h-89.023v-26.122h89.023
				V185.026z M271.644,158.904h34.013v26.122h-34.013V158.904z M153.869,248.743c-1.066-0.975-2.222-1.791-3.333-2.721l2.426-6.009
				c5.941,2.336,7.664,8.322,7.211,10.68L153.869,248.743z M124.391,122.307c-0.567-8.05,4.852-16.576,9.047-21.677l52.198,5.805
				c6.621,5.419,10.045,10.385,9.456,13.855c-0.998,6.032-12.698,13.084-21.609,16.371h-40.589
				C127.521,132.193,124.731,127.454,124.391,122.307z M169.923,158.95c-2.88,14.059-8.299,35.532-17.845,57.754
				c-5.261,12.245-8.299,18.911-10.045,22.63c-3.401-2.404-6.825-4.558-10.226-6.394c16.054-24.852,23.99-57.822,27.119-73.989
				C158.926,158.95,169.923,158.95,169.923,158.95z M43.759,294.003l-14.716-3.673c26.757-38.14,57.686-44.874,83.898-41.586
				c10.884,1.361,32.924,19.274,39.795,33.015h-15.102c-10.907-10.408-25.736-16.893-42.108-16.893
				C73.486,264.843,54.348,276.611,43.759,294.003z M95.549,361.597c-20.884,0-37.867-16.712-37.867-37.233
				c0-20.544,16.984-37.233,37.867-37.233s37.867,16.712,37.867,37.233C133.416,344.909,116.432,361.597,95.549,361.597z
				 M341.665,313.231H154.957c-0.612-3.197-1.61-6.213-2.721-9.206h113.058c1.292,0,2.585-0.227,3.809-0.658
				c24.852-8.707,39.432-22.335,43.378-40.475c4.422-20.43-6.168-41.087-16.621-55.554h65.554c32.72,0,68.229,27.301,76.007,58.411
				c0.952,3.809,0.363,7.483-0.567,10.816c-10.045-7.279-22.312-11.723-35.736-11.723
				C371.573,264.843,346.993,285.726,341.665,313.231z M401.073,361.597c-20.884,0-37.867-16.712-37.867-37.233
				c0-20.544,16.984-37.233,37.867-37.233c20.884,0,37.867,16.712,37.867,37.233C438.964,344.909,421.98,361.597,401.073,361.597z"
				/>
		</g>
	</g>
</g>
<g>
</g>
<g>
</g>
<g>
</g>
<g>
</g>
<g>
</g>
<g>
</g>
<g>
</g>
<g>
</g>
<g>
</g>
<g>
</g>
<g>
</g>
<g>
</g>
<g>
</g>
<g>
</g>
<g>
</g>
</svg>
