<?xml version="1.0" encoding="iso-8859-1"?>
<!-- Generator: Adobe Illustrator 19.1.0, SVG Export Plug-In . SVG Version: 6.00 Build 0)  -->
<svg version="1.1" id="Capa_1" xmlns="http://www.w3.org/2000/svg" xmlns:xlink="http://www.w3.org/1999/xlink" x="0px" y="0px"
	 viewBox="0 0 327.344 327.344" style="enable-background:new 0 0 327.344 327.344;" xml:space="preserve">
<g>
	<g id="Screwdrivers_2_">
		<g>
			<path d="M86.806,224.495l16.031,16.031l16.054-16.031l-16.031-16.054L86.806,224.495z M311.29,0.011l-20.045,4.014l-40.09,40.09
				l-3.991,20.022l-80.179,80.179l-16.031-16.031c-8.866-8.866-23.219-8.866-32.063,0L6.649,240.527
				c-8.866,8.866-8.866,23.219,0,32.063l48.094,48.094c8.866,8.866,23.219,8.866,32.063,0l112.242-112.242
				c8.866-8.866,8.866-23.219,0-32.063l-16.031-16.031l80.179-80.179l20.045-4.013l40.09-40.09l4.014-20.045L311.29,0.011z
				 M166.985,208.441l-80.179,80.179c-8.866,8.866-23.219,8.866-32.063,0l-16.031-16.031c-8.866-8.866-8.866-23.219,0-32.063
				l80.179-80.179c8.866-8.866,23.219-8.866,32.063,0l8.004,8.027l8.027,8.004C175.829,185.245,175.829,199.598,166.985,208.441z
				 M118.891,192.41l16.031,16.031l16.031-16.031l-16.031-16.031L118.891,192.41z M54.743,256.558l16.031,16.031l16.031-16.031
				l-16.031-16.031L54.743,256.558z"/>
		</g>
	</g>
</g>
<g>
</g>
<g>
</g>
<g>
</g>
<g>
</g>
<g>
</g>
<g>
</g>
<g>
</g>
<g>
</g>
<g>
</g>
<g>
</g>
<g>
</g>
<g>
</g>
<g>
</g>
<g>
</g>
<g>
</g>
</svg>
