<?xml version="1.0" encoding="iso-8859-1"?>
<!-- Generator: Adobe Illustrator 19.1.0, SVG Export Plug-In . SVG Version: 6.00 Build 0)  -->
<svg version="1.1" id="Capa_1" xmlns="http://www.w3.org/2000/svg" xmlns:xlink="http://www.w3.org/1999/xlink" x="0px" y="0px"
	 viewBox="0 0 294.777 294.777" style="enable-background:new 0 0 294.777 294.777;" xml:space="preserve">
<g>
	<g id="Setting_2_">
		<g>
			<path d="M147.388,90.701c-31.314,0-56.688,25.373-56.688,56.688s25.373,56.688,56.688,56.688s56.688-25.373,56.688-56.688
				S178.703,90.701,147.388,90.701z M147.388,181.401c-18.775,0-34.013-15.238-34.013-34.013s15.238-34.013,34.013-34.013
				s34.013,15.238,34.013,34.013S166.163,181.401,147.388,181.401z M259.698,169.066l35.078-11.338v-20.68l-34.239-11.474
				l-1.769,0.907c-2.97-15.873-9.387-30.498-18.208-43.31l3.107-0.975l17.029-33.287l-14.83-14.83l-32.766,16.326l-1.315,3.991
				c-12.29-8.526-26.19-14.898-41.382-18.027l0.748-1.292L158.726,0h-22.675l-12.562,34.239l1.156,2.063
				c-15.192,3.106-29.138,9.433-41.45,17.959L82.22,51.11L48.933,34.081L34.081,48.933l16.326,32.766l4.036,1.315
				c-8.685,12.562-15.056,26.825-18.14,42.357l-1.224-0.68L0,136.55v21.655L34.239,170.2l1.995-1.043
				c2.948,15.17,9.138,29.115,17.483,41.45l-2.97,0.862l-16.644,33.673l15.532,15.532l33.151-15.941l1.156-3.787
				c12.313,8.39,26.235,14.603,41.382,17.596l-0.635,1.156l11.859,35.078h21.655l11.995-34.239l-1.043-1.973
				c15.17-2.948,29.092-9.161,41.45-17.505l0.862,2.97l33.673,16.644l15.532-15.532l-15.941-33.151l-3.787-1.156
				c8.549-12.562,14.807-26.802,17.755-42.289L259.698,169.066z M147.388,238.089c-50.089,0-90.701-40.611-90.701-90.701
				s40.611-90.701,90.701-90.701s90.701,40.611,90.701,90.701S197.478,238.089,147.388,238.089z"/>
		</g>
	</g>
</g>
<g>
</g>
<g>
</g>
<g>
</g>
<g>
</g>
<g>
</g>
<g>
</g>
<g>
</g>
<g>
</g>
<g>
</g>
<g>
</g>
<g>
</g>
<g>
</g>
<g>
</g>
<g>
</g>
<g>
</g>
</svg>
