<?xml version="1.0" encoding="iso-8859-1"?>
<!-- Generator: Adobe Illustrator 19.1.0, SVG Export Plug-In . SVG Version: 6.00 Build 0)  -->
<svg version="1.1" id="Capa_1" xmlns="http://www.w3.org/2000/svg" xmlns:xlink="http://www.w3.org/1999/xlink" x="0px" y="0px"
	 viewBox="0 0 385.477 385.477" style="enable-background:new 0 0 385.477 385.477;" xml:space="preserve">
<g>
	<g id="Speaker_4_">
		<g>
			<path d="M192.739,124.713c18.775,0,34.013-15.238,34.013-34.013s-15.238-34.013-34.013-34.013s-34.013,15.238-34.013,34.013
				S173.964,124.713,192.739,124.713z M192.739,79.363c6.258,0,11.338,5.079,11.338,11.338s-5.079,11.338-11.338,11.338
				s-11.338-5.079-11.338-11.338S186.48,79.363,192.739,79.363z M56.688,0v385.477H328.79V0H56.688z M306.114,362.802H79.363V22.675
				h226.751V362.802z M192.739,328.79c43.831,0,79.363-35.532,79.363-79.363s-35.532-79.363-79.363-79.363
				s-79.363,35.532-79.363,79.363S148.908,328.79,192.739,328.79z M192.739,192.739c31.314,0,56.688,25.373,56.688,56.688
				s-25.373,56.688-56.688,56.688s-56.688-25.373-56.688-56.688S161.424,192.739,192.739,192.739z M192.739,272.102
				c12.517,0,22.675-10.158,22.675-22.675s-10.158-22.675-22.675-22.675s-22.675,10.158-22.675,22.675
				S180.222,272.102,192.739,272.102z"/>
		</g>
	</g>
</g>
<g>
</g>
<g>
</g>
<g>
</g>
<g>
</g>
<g>
</g>
<g>
</g>
<g>
</g>
<g>
</g>
<g>
</g>
<g>
</g>
<g>
</g>
<g>
</g>
<g>
</g>
<g>
</g>
<g>
</g>
</svg>
