<?xml version="1.0" encoding="iso-8859-1"?>
<!-- Generator: Adobe Illustrator 19.1.0, SVG Export Plug-In . SVG Version: 6.00 Build 0)  -->
<svg version="1.1" id="Capa_1" xmlns="http://www.w3.org/2000/svg" xmlns:xlink="http://www.w3.org/1999/xlink" x="0px" y="0px"
	 viewBox="0 0 338.933 338.933" style="enable-background:new 0 0 338.933 338.933;" xml:space="preserve">
<g>
	<g id="Star_2_">
		<g>
			<path d="M338.481,130.022c-1.111-3.447-4.036-5.941-7.551-6.462l-105.78-15.601l-47.3-97.322
				c-1.565-3.243-4.83-5.283-8.367-5.283c-3.56,0-6.825,2.063-8.39,5.306l-47.3,97.299l-105.78,15.6
				c-3.515,0.522-6.44,3.016-7.551,6.462c-1.111,3.447-0.181,7.211,2.358,9.728l76.551,75.758L61.3,322.466
				c-0.59,3.56,0.839,7.165,3.719,9.297c2.88,2.131,6.689,2.404,9.841,0.726l94.601-50.498l94.601,50.498
				c1.361,0.726,2.857,1.088,4.354,1.088c1.95,0,3.877-0.612,5.487-1.814c2.88-2.131,4.331-5.737,3.719-9.297l-18.072-106.959
				l76.529-75.758C338.663,137.233,339.57,133.469,338.481,130.022z M237.395,202.991c-2.041,2.018-2.97,4.943-2.494,7.8
				l14.535,86.03l-76.098-40.611c-1.27-0.68-2.653-1.02-4.036-1.02s-2.766,0.34-4.036,1.02l-76.075,40.611l14.535-86.029
				c0.476-2.857-0.453-5.782-2.494-7.8l-61.563-60.928l85.077-12.539c2.812-0.408,5.261-2.222,6.508-4.807l38.072-75.508
				l38.026,75.508c1.27,2.585,3.696,4.399,6.508,4.807l80.973,14.013L237.395,202.991z"/>
		</g>
	</g>
</g>
<g>
</g>
<g>
</g>
<g>
</g>
<g>
</g>
<g>
</g>
<g>
</g>
<g>
</g>
<g>
</g>
<g>
</g>
<g>
</g>
<g>
</g>
<g>
</g>
<g>
</g>
<g>
</g>
<g>
</g>
</svg>
