<?xml version="1.0" encoding="iso-8859-1"?>
<!-- Generator: Adobe Illustrator 19.1.0, SVG Export Plug-In . SVG Version: 6.00 Build 0)  -->
<svg version="1.1" id="Capa_1" xmlns="http://www.w3.org/2000/svg" xmlns:xlink="http://www.w3.org/1999/xlink" x="0px" y="0px"
	 viewBox="0 0 317.452 317.452" style="enable-background:new 0 0 317.452 317.452;" xml:space="preserve">
<g>
	<g id="T-Shirt_2_">
		<g>
			<path d="M249.427,11.338H68.025L0,56.688l22.675,68.025l34.013-11.338v192.739h204.076V113.376l34.013,11.338l22.675-68.025
				L249.427,11.338z M281.671,96.437l-13.718-4.58c-2.358-0.771-4.784-1.156-7.188-1.156c-4.694,0-9.342,1.451-13.265,4.286
				c-5.918,4.263-9.41,11.088-9.41,18.39v170.064H79.363V113.376c0-7.279-3.492-14.127-9.41-18.39
				c-3.923-2.834-8.571-4.286-13.265-4.286c-2.404,0-4.83,0.385-7.165,1.156l-13.741,4.58L27.89,65.35l47.006-31.337h27.142
				c0,12.517,25.373,22.675,56.688,22.675s56.688-10.158,56.688-22.675h27.142l47.006,31.337L281.671,96.437z"/>
		</g>
	</g>
</g>
<g>
</g>
<g>
</g>
<g>
</g>
<g>
</g>
<g>
</g>
<g>
</g>
<g>
</g>
<g>
</g>
<g>
</g>
<g>
</g>
<g>
</g>
<g>
</g>
<g>
</g>
<g>
</g>
<g>
</g>
</svg>
