<?xml version="1.0" encoding="iso-8859-1"?>
<!-- Generator: Adobe Illustrator 19.1.0, SVG Export Plug-In . SVG Version: 6.00 Build 0)  -->
<svg version="1.1" id="Capa_1" xmlns="http://www.w3.org/2000/svg" xmlns:xlink="http://www.w3.org/1999/xlink" x="0px" y="0px"
	 viewBox="0 0 362.984 362.984" style="enable-background:new 0 0 362.984 362.984;" xml:space="preserve">
<g>
	<g id="Umbrella_2_">
		<g>
			<path d="M181.492,0C87.549,0,11.428,78.297,11.428,170.245c1.383-7.392,22.72-22.675,45.35-22.675s32.63,3.945,34.013,11.338
				c7.982-9.319,44.761-9.773,79.363-11.338v170.064c0,11.746-10.635,22.675-22.675,22.675c-11.995,0-22.675-10.929-22.675-22.675
				h-22.675c0,27.006,17.755,45.35,45.35,45.35s45.35-18.344,45.35-45.35V147.57c34.58,1.565,60.044,2.018,68.025,11.338
				c1.383-7.392,22.72-11.338,45.35-11.338c22.652,0,43.967,15.283,45.35,22.675C351.555,78.297,275.435,0,181.492,0z
				 M306.205,124.895c-17.777,0-22.403,6.349-34.013,11.338c-27.074-11.338-72.402-11.338-90.701-11.338s-63.626,0-90.701,11.338
				c-11.61-4.989-16.235-11.338-34.013-11.338c-2.789,0-8.685-0.136-11.338,0C63.264,68.139,117.729,22.857,181.492,22.857
				S299.72,68.139,317.543,124.895C314.912,124.781,308.994,124.895,306.205,124.895z"/>
		</g>
	</g>
</g>
<g>
</g>
<g>
</g>
<g>
</g>
<g>
</g>
<g>
</g>
<g>
</g>
<g>
</g>
<g>
</g>
<g>
</g>
<g>
</g>
<g>
</g>
<g>
</g>
<g>
</g>
<g>
</g>
<g>
</g>
</svg>
