<?xml version="1.0" encoding="iso-8859-1"?>
<!-- Generator: Adobe Illustrator 19.1.0, SVG Export Plug-In . SVG Version: 6.00 Build 0)  -->
<svg version="1.1" id="Capa_1" xmlns="http://www.w3.org/2000/svg" xmlns:xlink="http://www.w3.org/1999/xlink" x="0px" y="0px"
	 viewBox="0 0 317.452 317.452" style="enable-background:new 0 0 317.452 317.452;" xml:space="preserve">
<g>
	<g id="Purse_2_">
		<g>
			<path d="M272.102,45.35c0-25.056-20.294-45.35-45.35-45.35H45.35C20.294,0,0,20.294,0,45.35v272.102h272.102
				c25.056,0,45.35-20.294,45.35-45.35V90.701C317.452,65.645,297.158,45.35,272.102,45.35z M68.025,22.675h136.051
				c16.757,0,31.201,9.183,39.069,22.675H28.956C36.824,31.859,51.291,22.675,68.025,22.675z M294.777,192.739
				c0,6.258-5.079,11.338-11.338,11.338h-68.025c-6.258,0-11.338-5.079-11.338-11.338v-22.675c0-6.258,5.079-11.338,11.338-11.338
				h68.025c6.258,0,11.338,5.079,11.338,11.338V192.739z M294.777,136.051H192.739c-6.258,0-11.338,5.079-11.338,11.338v68.025
				c0,6.258,5.079,11.338,11.338,11.338h102.038v22.675c0,25.056-20.294,45.35-45.35,45.35H22.675V68.025h226.751
				c25.056,0,45.35,20.294,45.35,45.35V136.051z M238.089,170.064c-6.258,0-11.338,5.079-11.338,11.338s5.079,11.338,11.338,11.338
				c6.258,0,11.338-5.079,11.338-11.338S244.347,170.064,238.089,170.064z"/>
		</g>
	</g>
</g>
<g>
</g>
<g>
</g>
<g>
</g>
<g>
</g>
<g>
</g>
<g>
</g>
<g>
</g>
<g>
</g>
<g>
</g>
<g>
</g>
<g>
</g>
<g>
</g>
<g>
</g>
<g>
</g>
<g>
</g>
</svg>
