<?xml version="1.0" encoding="iso-8859-1"?>
<!-- Generator: Adobe Illustrator 19.1.0, SVG Export Plug-In . SVG Version: 6.00 Build 0)  -->
<svg version="1.1" id="Capa_1" xmlns="http://www.w3.org/2000/svg" xmlns:xlink="http://www.w3.org/1999/xlink" x="0px" y="0px"
	 viewBox="0 0 304.641 304.641" style="enable-background:new 0 0 304.641 304.641;" xml:space="preserve">
<g>
	<g id="Watches_2_">
		<g>
			<path d="M176.367,112.242l-40.09,40.09l32.063,32.063l16.031-16.031l-16.009-16.031l24.058-24.058L176.367,112.242z
				 M304.641,48.094L256.547,0l-52.176,52.176c-42.697-22.176-96.369-15.873-132.219,19.977
				c-35.827,35.849-42.153,89.499-19.977,132.219L0,256.547l48.094,48.094l52.175-52.175
				c42.697,22.176,96.369,15.873,132.219-19.977c35.849-35.827,42.153-89.499,19.977-132.219L304.641,48.094z M216.457,216.457
				c-29.523,29.523-98.75,29.523-128.273,0s-29.523-98.75,0-128.273s98.75-29.523,128.273,0l0,0
				C245.98,117.707,245.98,186.934,216.457,216.457z"/>
		</g>
	</g>
</g>
<g>
</g>
<g>
</g>
<g>
</g>
<g>
</g>
<g>
</g>
<g>
</g>
<g>
</g>
<g>
</g>
<g>
</g>
<g>
</g>
<g>
</g>
<g>
</g>
<g>
</g>
<g>
</g>
<g>
</g>
</svg>
